<?xml version="1.0" encoding="utf-8"?>
<!-- Generator: Adobe Illustrator 22.0.0, SVG Export Plug-In . SVG Version: 6.00 Build 0)  -->
<svg version="1.1" id="Layer_1" xmlns="http://www.w3.org/2000/svg" xmlns:xlink="http://www.w3.org/1999/xlink" x="0px" y="0px"
	 viewBox="0 0 211.46 81.418" enable-background="new 0 0 211.46 81.418" xml:space="preserve">
<g>
	<g>
		
			<linearGradient id="SVGID_1_" gradientUnits="userSpaceOnUse" x1="-809.6401" y1="1808.1589" x2="-775.497" y2="1808.1589" gradientTransform="matrix(1 0 0 1 810.6401 -1790.5264)">
			<stop  offset="0" style="stop-color:#CB2E3F"/>
			<stop  offset="1" style="stop-color:#F0493A"/>
		</linearGradient>
		<path fill="url(#SVGID_1_)" d="M2.332,32.18C12.135,16.315,24.386,5.093,35.143,0.869H1v33.527
			C1.435,33.656,1.876,32.917,2.332,32.18z"/>
		
			<linearGradient id="SVGID_2_" gradientUnits="userSpaceOnUse" x1="-799.4081" y1="1856.1357" x2="-763.6411" y2="1856.1357" gradientTransform="matrix(1 0 0 1 810.6401 -1790.5264)">
			<stop  offset="0" style="stop-color:#CB2E3F"/>
			<stop  offset="1" style="stop-color:#F0493A"/>
		</linearGradient>
		<polyline fill="url(#SVGID_2_)" points="11.232,80.418 46.999,80.418 46.999,50.801 		"/>
	</g>
	<g>
		<path fill="#F9F9FA" d="M71.335,2.522h8.903v4.109h-3.563v3.894h3.335v3.907h-3.335v4.515h3.919v4.109h-9.259V2.522L71.335,2.522z
			"/>
		<path fill="#F9F9FA" d="M98.604,2.522v20.535h-4.667L93.93,9.194l-1.857,13.863h-3.311l-1.96-13.546l-0.006,13.546h-4.668V2.522
			h6.909c0.205,1.235,0.417,2.69,0.634,4.366l0.759,5.223l1.227-9.589H98.604z"/>
		<path fill="#F9F9FA" d="M106.088,2.522v20.535h-5.34V2.522H106.088z"/>
		<path fill="#F9F9FA" d="M108.231,2.522h3.778c2.521,0,4.226,0.098,5.117,0.292c0.893,0.194,1.619,0.691,2.183,1.49
			c0.563,0.799,0.844,2.074,0.844,3.824c0,1.598-0.198,2.672-0.596,3.221c-0.397,0.55-1.181,0.88-2.349,0.99
			c1.06,0.262,1.769,0.613,2.131,1.053c0.365,0.439,0.591,0.843,0.681,1.211c0.088,0.368,0.133,1.38,0.133,3.038v5.416h-4.959
			v-6.824c0-1.099-0.088-1.78-0.26-2.042c-0.175-0.262-0.629-0.393-1.363-0.393v9.259h-5.34V2.522z M113.571,6.036v4.566
			c0.601,0,1.021-0.083,1.263-0.248c0.24-0.165,0.36-0.699,0.36-1.604V7.621c0-0.651-0.116-1.078-0.351-1.281
			C114.611,6.137,114.188,6.036,113.571,6.036z"/>
		<path fill="#F9F9FA" d="M131.451,2.522l3.055,20.535h-5.457l-0.287-3.691h-1.909l-0.319,3.691h-5.521l2.725-20.535H131.451z
			 M128.621,15.726c-0.27-2.326-0.541-5.201-0.812-8.625c-0.544,3.932-0.887,6.807-1.023,8.625H128.621z"/>
		<path fill="#F9F9FA" d="M144.734,2.522v4.109h-3.171v16.425h-5.34V6.631h-3.158V2.522H144.734z"/>
		<path fill="#F9F9FA" d="M145.951,2.522h8.903v4.109h-3.563v3.894h3.336v3.907h-3.336v4.515h3.92v4.109h-9.26V2.522z"/>
		<path fill="#F9F9FA" d="M168.059,8.737H163.1V7.215c0-0.71-0.064-1.162-0.19-1.357c-0.127-0.194-0.338-0.292-0.634-0.292
			c-0.321,0-0.563,0.131-0.729,0.394c-0.164,0.262-0.246,0.66-0.246,1.193c0,0.685,0.093,1.202,0.277,1.548
			c0.178,0.347,0.68,0.766,1.508,1.255c2.377,1.411,3.875,2.569,4.492,3.473c0.617,0.905,0.926,2.364,0.926,4.377
			c0,1.463-0.172,2.54-0.514,3.234c-0.343,0.693-1.005,1.274-1.984,1.744c-0.98,0.469-2.123,0.704-3.426,0.704
			c-1.429,0-2.646-0.271-3.658-0.813c-1.01-0.541-1.672-1.23-1.983-2.067c-0.311-0.837-0.472-2.025-0.472-3.564V15.7h4.959v2.499
			c0,0.77,0.07,1.264,0.211,1.484c0.141,0.22,0.388,0.33,0.742,0.33c0.354,0,0.619-0.14,0.791-0.418
			c0.176-0.279,0.263-0.693,0.263-1.243c0-1.209-0.165-2-0.495-2.372c-0.338-0.372-1.171-0.994-2.499-1.865
			c-1.327-0.879-2.206-1.518-2.64-1.915c-0.432-0.398-0.787-0.947-1.07-1.649c-0.283-0.702-0.426-1.598-0.426-2.688
			c0-1.573,0.201-2.723,0.604-3.45c0.402-0.727,1.053-1.296,1.947-1.706c0.895-0.41,1.979-0.615,3.247-0.615
			c1.387,0,2.567,0.224,3.545,0.672c0.978,0.448,1.623,1.013,1.939,1.693c0.317,0.68,0.478,1.837,0.478,3.469L168.059,8.737
			L168.059,8.737z"/>
		<path fill="#F9F9FA" d="M174.755,2.522h9.043v4.109h-3.702v3.894h3.298v3.907h-3.298v8.625h-5.341V2.522z"/>
		<path fill="#F9F9FA" d="M197.294,14.546c0,2.063-0.049,3.524-0.146,4.382c-0.098,0.858-0.4,1.644-0.913,2.354
			c-0.512,0.71-1.202,1.256-2.073,1.636c-0.871,0.381-1.887,0.571-3.045,0.571c-1.099,0-2.086-0.18-2.961-0.539
			c-0.875-0.359-1.578-0.898-2.111-1.617c-0.531-0.718-0.851-1.5-0.951-2.346c-0.102-0.846-0.151-2.325-0.151-4.439v-3.513
			c0-2.063,0.05-3.524,0.146-4.382c0.098-0.858,0.402-1.642,0.914-2.353c0.512-0.71,1.201-1.256,2.072-1.636
			c0.871-0.38,1.887-0.571,3.045-0.571c1.1,0,2.086,0.18,2.961,0.539c0.875,0.359,1.58,0.898,2.111,1.617
			c0.533,0.719,0.852,1.501,0.951,2.347c0.102,0.845,0.152,2.325,0.152,4.439V14.546z M191.955,7.798
			c0-0.955-0.054-1.566-0.158-1.833c-0.105-0.267-0.322-0.399-0.652-0.399c-0.279,0-0.492,0.107-0.643,0.323
			c-0.145,0.215-0.221,0.852-0.221,1.909v9.589c0,1.192,0.049,1.928,0.145,2.207c0.1,0.279,0.324,0.418,0.681,0.418
			c0.362,0,0.599-0.161,0.698-0.481c0.101-0.321,0.15-1.086,0.15-2.296V7.798L191.955,7.798z"/>
		<path fill="#F9F9FA" d="M199.285,2.522h3.779c2.52,0,4.227,0.098,5.118,0.292c0.892,0.194,1.618,0.691,2.183,1.49
			c0.563,0.799,0.844,2.074,0.844,3.824c0,1.598-0.199,2.672-0.598,3.221c-0.396,0.55-1.18,0.88-2.347,0.99
			c1.058,0.262,1.769,0.613,2.131,1.053c0.364,0.439,0.59,0.843,0.679,1.211c0.09,0.368,0.135,1.38,0.135,3.038v5.416h-4.961v-6.824
			c0-1.099-0.086-1.78-0.26-2.042c-0.174-0.262-0.628-0.393-1.363-0.393v9.259h-5.34V2.522z M204.624,6.036v4.566
			c0.603,0,1.021-0.083,1.264-0.248c0.242-0.165,0.359-0.699,0.359-1.604V7.621c0-0.651-0.115-1.078-0.349-1.281
			C205.665,6.137,205.242,6.036,204.624,6.036z"/>
		<path fill="#ED2024" d="M76.675,29.58v20.534h-5.34V29.58H76.675z"/>
		<path fill="#ED2024" d="M90.74,29.58v20.534h-4.68l-2.778-9.333v9.333h-4.464V29.58h4.464l2.994,9.247V29.58H90.74z"/>
		<path fill="#ED2024" d="M92.884,29.58h3.995c2.579,0,4.323,0.119,5.232,0.355c0.909,0.236,1.6,0.625,2.073,1.167
			c0.474,0.542,0.77,1.144,0.889,1.808c0.118,0.664,0.177,1.968,0.177,3.913v7.192c0,1.842-0.087,3.074-0.26,3.695
			c-0.173,0.621-0.476,1.107-0.907,1.459c-0.431,0.352-0.964,0.598-1.598,0.734c-0.634,0.141-1.59,0.209-2.866,0.209h-6.735V29.58z
			 M98.224,33.094v13.508c0.77,0,1.243-0.153,1.421-0.463c0.178-0.309,0.266-1.146,0.266-2.52v-7.977
			c0-0.93-0.029-1.526-0.088-1.789c-0.06-0.262-0.195-0.454-0.406-0.577C99.204,33.155,98.808,33.094,98.224,33.094z"/>
		<path fill="#ED2024" d="M119.38,29.58v13.724c0,1.558-0.051,2.647-0.152,3.278c-0.102,0.629-0.402,1.275-0.9,1.939
			c-0.5,0.664-1.156,1.168-1.973,1.51c-0.816,0.344-1.777,0.514-2.885,0.514c-1.226,0-2.309-0.203-3.248-0.607
			c-0.938-0.405-1.641-0.936-2.105-1.586c-0.464-0.649-0.738-1.338-0.824-2.063c-0.084-0.723-0.127-2.242-0.127-4.559V29.58h5.34
			v15.397c0,0.896,0.051,1.472,0.146,1.72c0.098,0.25,0.293,0.375,0.59,0.375c0.338,0,0.555-0.138,0.652-0.412
			c0.098-0.275,0.146-0.925,0.146-1.947V29.58H119.38z"/>
		<path fill="#ED2024" d="M132.761,35.795h-4.959v-1.522c0-0.71-0.063-1.162-0.191-1.357c-0.127-0.194-0.338-0.292-0.634-0.292
			c-0.32,0-0.564,0.131-0.729,0.394c-0.166,0.262-0.248,0.66-0.248,1.193c0,0.685,0.092,1.202,0.276,1.548
			c0.179,0.347,0.683,0.766,1.511,1.255c2.377,1.411,3.873,2.569,4.49,3.473c0.617,0.905,0.928,2.364,0.928,4.376
			c0,1.464-0.172,2.541-0.516,3.234c-0.343,0.691-1.005,1.271-1.984,1.742c-0.979,0.471-2.121,0.703-3.426,0.703
			c-1.429,0-2.646-0.271-3.658-0.813c-1.011-0.541-1.672-1.229-1.983-2.066c-0.313-0.838-0.47-2.024-0.47-3.563v-1.346h4.959v2.498
			c0,0.771,0.068,1.266,0.209,1.484c0.141,0.221,0.388,0.33,0.742,0.33c0.354,0,0.619-0.142,0.793-0.42
			c0.174-0.277,0.26-0.691,0.26-1.242c0-1.209-0.164-2-0.494-2.371c-0.338-0.373-1.172-0.994-2.499-1.865
			c-1.327-0.879-2.206-1.518-2.638-1.915c-0.434-0.397-0.789-0.947-1.072-1.649c-0.283-0.702-0.426-1.598-0.426-2.689
			c0-1.573,0.201-2.723,0.604-3.45c0.402-0.727,1.051-1.296,1.947-1.706c0.896-0.41,1.978-0.615,3.246-0.615
			c1.388,0,2.568,0.224,3.546,0.672c0.978,0.448,1.622,1.013,1.94,1.693c0.316,0.68,0.475,1.837,0.475,3.469V35.795L132.761,35.795z
			"/>
		<path fill="#ED2024" d="M145.634,29.58v4.109h-3.17v16.425h-5.34V33.689h-3.158V29.58H145.634z"/>
		<path fill="#ED2024" d="M146.853,29.58h3.779c2.52,0,4.226,0.098,5.117,0.292c0.893,0.194,1.619,0.691,2.183,1.49
			c0.563,0.799,0.844,2.074,0.844,3.824c0,1.598-0.198,2.672-0.597,3.221c-0.396,0.55-1.18,0.88-2.348,0.99
			c1.059,0.262,1.769,0.613,2.131,1.053c0.365,0.439,0.59,0.843,0.68,1.21c0.089,0.367,0.134,1.381,0.134,3.037v5.416h-4.96v-6.822
			c0-1.1-0.087-1.781-0.26-2.043c-0.174-0.262-0.629-0.393-1.363-0.393v9.258h-5.34V29.58L146.853,29.58z M152.192,33.094v4.566
			c0.601,0,1.021-0.083,1.263-0.248c0.24-0.165,0.36-0.699,0.36-1.604V34.68c0-0.651-0.116-1.078-0.349-1.281
			C153.233,33.196,152.81,33.094,152.192,33.094z"/>
		<path fill="#ED2024" d="M166.182,29.58v20.534h-5.341V29.58H166.182z"/>
		<path fill="#ED2024" d="M177.556,29.58l3.054,20.534h-5.457l-0.286-3.689h-1.91l-0.32,3.689h-5.52l2.725-20.534H177.556z
			 M174.726,42.784c-0.271-2.326-0.541-5.201-0.813-8.625c-0.545,3.932-0.888,6.807-1.024,8.625H174.726z"/>
		<path fill="#ED2024" d="M186.855,29.58v16.424h3.247v4.109h-8.587V29.58H186.855z"/>
		<path fill="#FFFFFF" d="M83.803,65.581h-5.34v-3.57c0-1.036-0.058-1.686-0.171-1.94c-0.114-0.258-0.366-0.387-0.755-0.387
			c-0.44,0-0.719,0.155-0.837,0.469c-0.119,0.313-0.178,0.99-0.178,2.029v9.538c0,0.998,0.059,1.649,0.178,1.953
			c0.118,0.306,0.384,0.457,0.799,0.457c0.397,0,0.657-0.151,0.78-0.459c0.122-0.305,0.184-1.021,0.184-2.147v-2.58h5.34v0.801
			c0,2.125-0.15,3.633-0.45,4.521c-0.301,0.891-0.964,1.668-1.991,2.338c-1.027,0.668-2.294,1.004-3.799,1.004
			c-1.564,0-2.854-0.282-3.869-0.852c-1.015-0.566-1.687-1.352-2.017-2.354c-0.329-1.002-0.494-2.51-0.494-4.521v-6
			c0-1.479,0.051-2.588,0.152-3.328c0.102-0.738,0.403-1.451,0.906-2.137c0.503-0.686,1.201-1.225,2.093-1.617
			c0.893-0.395,1.918-0.59,3.076-0.59c1.572,0,2.87,0.303,3.894,0.912c1.024,0.607,1.695,1.365,2.017,2.273
			c0.321,0.905,0.482,2.317,0.482,4.235V65.581z"/>
		<path fill="#FFFFFF" d="M91.058,56.638v20.534h-5.34V56.638H91.058z"/>
		<path fill="#FFFFFF" d="M103.956,56.638v4.108h-3.171v16.426h-5.339V60.747h-3.158v-4.108L103.956,56.638L103.956,56.638z"/>
		<path fill="#FFFFFF" d="M110.515,56.638v20.534h-5.341V56.638H110.515z"/>
		<path fill="#FFFFFF" d="M112.658,56.638h8.902v4.108h-3.563v3.896h3.336v3.904h-3.336v4.518h3.918v4.107h-9.258V56.638
			L112.658,56.638z"/>
		<path fill="#FFFFFF" d="M134.765,62.853h-4.959v-1.521c0-0.711-0.063-1.162-0.189-1.357c-0.127-0.192-0.339-0.291-0.635-0.291
			c-0.32,0-0.564,0.131-0.729,0.395c-0.166,0.262-0.248,0.658-0.248,1.19c0,0.687,0.093,1.203,0.277,1.549
			c0.178,0.349,0.682,0.767,1.51,1.257c2.377,1.409,3.873,2.567,4.492,3.473c0.615,0.906,0.926,2.363,0.926,4.377
			c0,1.463-0.172,2.541-0.516,3.234c-0.343,0.692-1.005,1.272-1.984,1.743c-0.979,0.47-2.121,0.703-3.424,0.703
			c-1.431,0-2.648-0.271-3.66-0.813c-1.01-0.541-1.672-1.23-1.983-2.066c-0.313-0.838-0.47-2.024-0.47-3.563v-1.345h4.959v2.498
			c0,0.771,0.07,1.265,0.209,1.482c0.141,0.221,0.388,0.33,0.742,0.33c0.354,0,0.619-0.139,0.793-0.418
			c0.174-0.279,0.26-0.693,0.26-1.242c0-1.209-0.164-2-0.494-2.371c-0.338-0.373-1.171-0.994-2.499-1.865
			c-1.327-0.879-2.206-1.518-2.638-1.916c-0.432-0.396-0.789-0.944-1.072-1.647c-0.283-0.701-0.426-1.598-0.426-2.688
			c0-1.57,0.201-2.724,0.604-3.447c0.402-0.727,1.051-1.297,1.947-1.707c0.896-0.41,1.979-0.615,3.247-0.615
			c1.387,0,2.567,0.225,3.545,0.674c0.978,0.447,1.623,1.012,1.94,1.693c0.316,0.68,0.476,1.836,0.476,3.469L134.765,62.853
			L134.765,62.853z"/>
		<path fill="#FFFFFF" d="M153.93,65.581h-5.341v-3.57c0-1.036-0.057-1.686-0.17-1.94c-0.114-0.256-0.367-0.387-0.756-0.387
			c-0.438,0-0.72,0.155-0.836,0.469c-0.119,0.313-0.18,0.99-0.18,2.029v9.538c0,0.998,0.061,1.649,0.18,1.953
			c0.116,0.306,0.385,0.457,0.799,0.457c0.396,0,0.656-0.151,0.779-0.459c0.121-0.305,0.184-1.021,0.184-2.147v-2.58h5.341v0.801
			c0,2.125-0.149,3.633-0.45,4.521c-0.3,0.891-0.964,1.668-1.99,2.338c-1.027,0.668-2.295,1.004-3.8,1.004
			c-1.564,0-2.855-0.282-3.868-0.852c-1.014-0.566-1.688-1.352-2.017-2.354c-0.33-1.002-0.495-2.51-0.495-4.521v-6
			c0-1.479,0.051-2.588,0.152-3.328c0.102-0.738,0.402-1.451,0.906-2.137c0.504-0.686,1.199-1.225,2.094-1.617
			c0.892-0.395,1.916-0.59,3.074-0.59c1.572,0,2.871,0.303,3.895,0.912c1.023,0.607,1.695,1.365,2.018,2.273
			c0.32,0.905,0.481,2.317,0.481,4.235V65.581L153.93,65.581z"/>
		<path fill="#FFFFFF" d="M168.046,68.663c0,2.063-0.049,3.522-0.146,4.381c-0.098,0.858-0.4,1.644-0.913,2.354
			c-0.512,0.709-1.202,1.256-2.073,1.636c-0.871,0.381-1.887,0.571-3.045,0.571c-1.099,0-2.086-0.182-2.961-0.539
			c-0.875-0.358-1.578-0.897-2.111-1.616c-0.531-0.72-0.85-1.502-0.95-2.349c-0.102-0.846-0.152-2.324-0.152-4.438V65.15
			c0-2.063,0.05-3.524,0.146-4.383c0.099-0.857,0.402-1.645,0.914-2.354c0.512-0.711,1.201-1.256,2.072-1.637
			c0.871-0.381,1.887-0.57,3.045-0.57c1.101,0,2.086,0.18,2.961,0.539c0.875,0.357,1.58,0.896,2.111,1.617
			c0.533,0.719,0.852,1.5,0.951,2.346c0.102,0.848,0.152,2.326,0.152,4.439V68.663L168.046,68.663z M162.707,61.915
			c0-0.955-0.054-1.566-0.158-1.832c-0.105-0.269-0.322-0.399-0.652-0.399c-0.277,0-0.492,0.106-0.643,0.323
			c-0.146,0.216-0.221,0.852-0.221,1.908v9.588c0,1.193,0.049,1.929,0.145,2.207c0.099,0.279,0.324,0.42,0.68,0.42
			c0.363,0,0.598-0.162,0.698-0.481c0.101-0.32,0.151-1.086,0.151-2.297V61.915L162.707,61.915z"/>
		<path fill="#FFFFFF" d="M173.296,72.987v4.186h-3.867v-4.186H173.296z"/>
	</g>
</g>
<path fill="none" stroke="#ED2024" stroke-miterlimit="10" d="M47.138,66.018c0.928,0.004,1.585,0.451,1.976,1.286
	c0.18,0.384,0.328,0.78,0.5,1.165c0.369,0.828,1.176,1.166,2.006,0.82c1.551-0.646,3.097-1.305,4.639-1.971
	c0.825-0.357,1.152-1.181,0.817-2.012c-0.163-0.404-0.362-0.798-0.511-1.205c-0.308-0.847-0.174-1.632,0.448-2.287
	c0.813-0.855,1.643-1.697,2.491-2.521c0.534-0.517,1.198-0.731,1.929-0.524c0.51,0.145,0.996,0.373,1.493,0.563
	c0.843,0.322,1.665-0.006,2.005-0.832c0.645-1.564,1.278-3.137,1.9-4.711c0.322-0.815-0.03-1.607-0.843-1.961
	c-0.388-0.168-0.786-0.313-1.176-0.479c-0.829-0.347-1.349-1.127-1.352-2.027c-0.005-1.125-0.016-2.252-0.014-3.379
	c0.002-0.943,0.45-1.613,1.307-2.004c0.385-0.176,0.782-0.324,1.167-0.5c0.8-0.359,1.144-1.181,0.808-1.982
	c-0.651-1.563-1.313-3.122-1.987-4.674c-0.356-0.821-1.182-1.132-2.02-0.789c-0.393,0.16-0.773,0.348-1.17,0.495
	c-0.86,0.318-1.653,0.182-2.319-0.455c-0.846-0.805-1.682-1.62-2.49-2.462c-0.595-0.621-0.78-1.37-0.473-2.199
	c0.157-0.423,0.34-0.836,0.5-1.257c0.32-0.839-0.02-1.647-0.857-1.991c-1.554-0.639-3.111-1.269-4.672-1.89
	c-0.834-0.332-1.634,0.02-1.991,0.854c-0.166,0.389-0.306,0.789-0.477,1.177c-0.381,0.865-1.069,1.305-1.998,1.329"/>
<path fill="none" stroke="#EC2426" stroke-miterlimit="10" d="M47.293,40.333c4.372,0,7.917,3.544,7.917,7.916
	c0,4.373-3.544,7.918-7.917,7.918"/>
</svg>
